<?xml version="1.0" encoding="utf-8"?>
<!-- Generator: Adobe Illustrator 23.0.1, SVG Export Plug-In . SVG Version: 6.00 Build 0)  -->
<svg version="1.1" id="Layer_1" xmlns="http://www.w3.org/2000/svg" xmlns:xlink="http://www.w3.org/1999/xlink" x="0px" y="0px"
	 viewBox="0 0 167.62354 190.13246" enable-background="new 0 0 167.62354 190.13246" xml:space="preserve">
<g class="box">
	<polygon id="Fill-70" fill-rule="evenodd" clip-rule="evenodd" fill="#EAF0F6" points="0.50027,122.33927 0.50027,141.5323 
		83.81245,189.63231 83.81245,170.4384 	"/>
	<path fill="#33475C" d="M83.81201,190.13246c-0.08643,0-0.17285-0.02246-0.25-0.06738L0.25049,141.96449
		c-0.15479-0.08887-0.25-0.25391-0.25-0.43262V122.3395c0-0.17871,0.09521-0.34375,0.25-0.43262
		c0.1543-0.08984,0.3457-0.08984,0.5,0l83.31152,48.09863c0.1543,0.08887,0.25,0.25391,0.25,0.43262v19.19434
		c0,0.17871-0.0957,0.34375-0.25,0.43262C83.98486,190.11,83.89795,190.13246,83.81201,190.13246z M1.00049,141.24281
		l82.31152,47.52344v-18.03906L1.00049,123.20571V141.24281z"/>
	<polygon id="Fill-74" fill-rule="evenodd" clip-rule="evenodd" fill="#CBD6E3" points="167.12349,122.33927 167.12349,141.5323 
		83.81218,189.63231 83.81218,170.4384 	"/>
	<path fill="#33475C" d="M83.81201,190.13246c-0.08643,0-0.17285-0.02246-0.25-0.06738c-0.15479-0.08887-0.25-0.25391-0.25-0.43262
		v-19.19434c0-0.17871,0.09521-0.34375,0.25-0.43262l83.31152-48.09863c0.1543-0.08984,0.3457-0.08984,0.5,0
		c0.1543,0.08887,0.25,0.25391,0.25,0.43262v19.19238c0,0.17871-0.0957,0.34375-0.25,0.43262l-83.31152,48.10059
		C83.98486,190.11,83.89795,190.13246,83.81201,190.13246z M84.31201,170.72719v18.03906l82.31152-47.52344v-18.0371
		L84.31201,170.72719z"/>
	<polygon id="Fill-78" fill-rule="evenodd" clip-rule="evenodd" fill="#FFFFFF" points="167.12349,112.77406 83.81218,160.87318 
		0.50001,112.77406 83.81218,64.67406 	"/>
	<path fill="#33475C" d="M83.81201,161.37367c-0.08643,0-0.17285-0.02246-0.25-0.06738L0.25,113.20669
		C0.09521,113.11782,0,112.95278,0,112.77407s0.09521-0.34375,0.25-0.43262l83.31201-48.10059
		c0.15479-0.08838,0.34473-0.08936,0.5,0l83.31152,48.10059c0.1543,0.08887,0.25,0.25391,0.25,0.43262s-0.0957,0.34375-0.25,0.43262
		l-83.31152,48.0996C83.98486,161.35121,83.89795,161.37367,83.81201,161.37367z M1.5,112.77407l82.31201,47.52245
		l82.31152-47.52245L83.81201,65.25112L1.5,112.77407z"/>
	<polygon id="Fill-82" fill-rule="evenodd" clip-rule="evenodd" fill="#CBD6E3" points="167.12349,112.77406 167.12349,122.33927 
		83.81218,170.4384 83.81218,160.87318 	"/>
	<path fill="#33475C" d="M83.81201,170.93813c-0.08643,0-0.17285-0.02246-0.25-0.06738c-0.15479-0.08887-0.25-0.25391-0.25-0.43262
		v-9.56445c0-0.17871,0.09521-0.34375,0.25-0.43262l83.31152-48.0996c0.1543-0.08984,0.3457-0.08984,0.5,0
		c0.1543,0.08887,0.25,0.25391,0.25,0.43262v9.56543c0,0.17871-0.0957,0.34375-0.25,0.43262l-83.31152,48.09863
		C83.98486,170.91566,83.89795,170.93813,83.81201,170.93813z M84.31201,161.16273v8.40918l82.31152-47.52148v-8.41016
		L84.31201,161.16273z"/>
	<polygon id="Fill-86" fill-rule="evenodd" clip-rule="evenodd" fill="#EAF0F6" points="0.50027,112.77406 0.50027,122.33927 
		83.81245,170.4384 83.81245,160.87318 	"/>
	<path fill="#33475C" d="M83.81201,170.93813c-0.08643,0-0.17285-0.02246-0.25-0.06738L0.25049,122.77212
		c-0.15479-0.08887-0.25-0.25391-0.25-0.43262v-9.56543c0-0.17871,0.09521-0.34375,0.25-0.43262
		c0.1543-0.08984,0.3457-0.08984,0.5,0l83.31152,48.0996c0.1543,0.08887,0.25,0.25391,0.25,0.43262v9.56445
		c0,0.17871-0.0957,0.34375-0.25,0.43262C83.98486,170.91566,83.89795,170.93813,83.81201,170.93813z M1.00049,122.05044
		l82.31152,47.52148v-8.40918L1.00049,113.64028V122.05044z"/>
	<polygon id="Fill-90" fill-rule="evenodd" clip-rule="evenodd" fill="#FFAB7D" points="147.34297,99.79675 62.68297,148.675 
		62.68297,179.17239 71.37862,184.19327 72.88557,183.3237 71.37862,182.45413 71.37862,153.69588 154.68993,105.59588 
		156.03862,106.37328 156.03862,104.81675 	"/>
	<path fill="#33475C" d="M71.37842,184.69301c-0.08643,0-0.17285-0.02246-0.25-0.06738l-8.69531-5.02051
		c-0.15479-0.08887-0.25-0.25391-0.25-0.43262v-30.49707c0-0.17871,0.09521-0.34375,0.25-0.43262l84.66016-48.87939
		c0.1543-0.08887,0.3457-0.08887,0.5,0l8.69531,5.021c0.1543,0.08887,0.25,0.25391,0.25,0.43262v1.55664
		c0,0.17871-0.0957,0.34375-0.25,0.43262c-0.1543,0.08984-0.3457,0.08887-0.5,0.00098l-1.09863-0.63379L71.87842,153.985v28.17969
		l1.25732,0.72656c0.15479,0.08887,0.25,0.25391,0.25,0.43262s-0.09521,0.34375-0.25,0.43359l-1.50732,0.86914
		C71.55078,184.67055,71.46484,184.69301,71.37842,184.69301z M63.18311,178.88344l8.19531,4.73242l0.50684-0.29199l-0.75684-0.4375
		c-0.15479-0.08887-0.25-0.25391-0.25-0.43262v-28.75781c0-0.17871,0.09521-0.34375,0.25-0.43262l83.31152-48.0996
		c0.1543-0.08984,0.3457-0.08887,0.5-0.00098l0.59863,0.3457v-0.40234l-8.19531-4.73242l-84.16016,48.59081V178.88344z"/>
	<polygon id="Fill-94" fill-rule="evenodd" clip-rule="evenodd" fill="#FFAB7D" points="104.80688,148.7523 20.19123,99.89927 
		11.49558,104.92014 11.49558,106.42623 12.79992,105.67319 96.11123,153.77318 96.11123,182.53143 94.60514,183.401 
		96.11123,184.27057 97.61731,183.401 104.80688,179.24969 	"/>
	<path fill="#33475C" d="M96.11084,184.77016c-0.08594,0-0.17285-0.02246-0.25-0.06738l-1.50586-0.86914
		c-0.1543-0.08887-0.25-0.25391-0.25-0.43262s0.0957-0.34375,0.25-0.43262l1.25586-0.72559v-28.18066L12.7998,106.25063
		l-1.0542,0.6084c-0.1543,0.08984-0.3457,0.08984-0.5,0c-0.15479-0.08887-0.25-0.25391-0.25-0.43262v-1.50586
		c0-0.17871,0.09521-0.34375,0.25-0.43262l8.6958-5.02197c0.1543-0.08887,0.3457-0.08887,0.5,0l84.61572,48.854
		c0.1543,0.08887,0.25,0.25391,0.25,0.43262v30.49707c0,0.17871-0.0957,0.34375-0.25,0.43262l-8.69629,5.02148
		C96.28369,184.7477,96.19678,184.77016,96.11084,184.77016z M95.60498,183.40102l0.50586,0.29199l8.19629-4.73242v-29.91895
		l-84.11572-48.56542l-8.1958,4.7334v0.35059l0.5542-0.31934c0.1543-0.08984,0.3457-0.08984,0.5,0l83.31104,48.0996
		c0.1543,0.08887,0.25,0.25391,0.25,0.43262v28.75879c0,0.17871-0.0957,0.34375-0.25,0.43262L95.60498,183.40102z"/>
</g>
<g class="bag">
	<polygon id="Fill-102" fill-rule="evenodd" clip-rule="evenodd" fill="#FFAB7D" points="146.09506,113.56206 131.16028,108.32553 
		116.22462,130.80814 	"/>
	<path fill="#33475C" d="M116.2251,131.30824c-0.13477,0-0.26758-0.05469-0.36426-0.15723
		c-0.15918-0.16992-0.18066-0.42578-0.05176-0.61914l14.93555-22.48241c0.125-0.19141,0.36719-0.27344,0.58105-0.19531
		l14.93457,5.23633c0.18457,0.06445,0.31445,0.23047,0.33301,0.4248c0.01758,0.19531-0.0791,0.38184-0.24805,0.47949
		l-29.87012,17.24609C116.39697,131.28676,116.31104,131.30824,116.2251,131.30824z M131.36182,108.92641l-13.54102,20.3828
		l27.08105-15.63573L131.36182,108.92641z"/>
	<polygon id="Fill-98" fill-rule="evenodd" clip-rule="evenodd" fill="#FF8F52" points="140.47437,28.2071 128.36392,31.5584 
		131.16045,108.32536 146.09523,113.56188 	"/>
	<path fill="#33475C" d="M146.09521,114.06216c-0.05566,0-0.11133-0.00879-0.16504-0.02832l-14.93457-5.23633
		c-0.19434-0.06836-0.32715-0.24805-0.33496-0.45312l-2.79688-76.76807c-0.00781-0.23145,0.14355-0.43799,0.36621-0.5
		l12.11035-3.35107c0.14453-0.04004,0.30078-0.01318,0.42285,0.07422c0.12305,0.08691,0.2002,0.22461,0.20996,0.375
		l5.62109,85.35449c0.01074,0.16797-0.0625,0.33008-0.19629,0.43164C146.30908,114.027,146.20264,114.06216,146.09521,114.06216z
		 M131.64795,107.96645l13.89844,4.87305l-5.53125-83.98682l-11.1377,3.08203L131.64795,107.96645z"/>
	<polygon id="Fill-106" fill-rule="evenodd" clip-rule="evenodd" fill="#FFAB7D" points="61.53923,8.62918 117.03401,38.9631 
		116.22444,130.8083 54.09575,94.93788 	"/>
	<path fill="#33475C" d="M116.22412,131.30824c-0.08594,0-0.17285-0.02246-0.25-0.06738L53.8457,95.37075
		c-0.16797-0.09717-0.26465-0.28271-0.24805-0.47607l7.44336-86.30859c0.01416-0.16846,0.11279-0.31787,0.26172-0.39746
		s0.32812-0.0791,0.47607,0.00146l55.49512,30.33398c0.16113,0.08887,0.26172,0.25879,0.25977,0.44336l-0.80957,91.8457
		c-0.00195,0.17773-0.09766,0.34082-0.25195,0.42969C116.39502,131.28676,116.31006,131.30824,116.22412,131.30824z
		 M54.62109,94.66372l61.11084,35.2832l0.79883-90.68896L61.97119,9.4352L54.62109,94.66372z"/>
	<polygon id="Fill-110" fill-rule="evenodd" clip-rule="evenodd" fill="#E8824A" points="61.53923,8.62918 81.09314,5.82223 
		81.09314,19.31701 	"/>
	<path fill="#33475C" d="M81.09326,19.81704c-0.08252,0-0.16504-0.02051-0.23975-0.06104L61.29932,9.06801
		c-0.18896-0.10352-0.29053-0.31592-0.25244-0.52783c0.03857-0.21191,0.20801-0.37549,0.42139-0.40625l19.5542-2.80664
		c0.14307-0.02246,0.28857,0.02246,0.39844,0.11719c0.10938,0.09521,0.17236,0.23291,0.17236,0.37793v13.49463
		c0,0.17676-0.09326,0.33984-0.24512,0.43018C81.27002,19.7936,81.18164,19.81704,81.09326,19.81704z M63.09668,8.91079
		l17.49658,9.56299V6.39907L63.09668,8.91079z"/>
	<polygon id="Fill-114" fill-rule="evenodd" clip-rule="evenodd" fill="#E8824A" points="81.09296,5.82257 86.56253,0.50084 
		86.66427,22.36257 81.09296,19.31736 	"/>
	<path fill="#33475C" d="M86.66455,22.86245c-0.08203,0-0.16504-0.02051-0.24023-0.06104l-5.57129-3.04492
		c-0.16064-0.08789-0.26025-0.25635-0.26025-0.43896V5.82241c0-0.13477,0.05469-0.26416,0.15137-0.3584l5.47021-5.32178
		c0.14258-0.14062,0.35645-0.18018,0.54199-0.10254c0.18457,0.07764,0.30566,0.2583,0.30664,0.4585L87.16455,22.36
		c0.00098,0.17725-0.0918,0.34131-0.24414,0.43213C86.84229,22.83901,86.75342,22.86245,86.66455,22.86245z M81.59277,19.02114
		l4.56787,2.49609l-0.0918-19.83789l-4.47607,4.354V19.02114z"/>
	<polygon id="Fill-118" fill-rule="evenodd" clip-rule="evenodd" fill="#FFAB7D" points="86.56253,0.50075 86.66427,22.36249 
		117.03384,38.96249 128.3634,31.55901 140.47472,28.20683 	"/>
	<path fill="#33475C" d="M117.03369,39.46254c-0.08203,0-0.16504-0.02051-0.24023-0.06104l-30.36914-16.6001
		c-0.15918-0.0874-0.25879-0.25488-0.25977-0.43652L86.06299,0.50307c-0.00098-0.1748,0.08984-0.3374,0.23828-0.42871
		s0.33398-0.09766,0.49023-0.01855l53.91211,27.70605c0.18359,0.09424,0.29004,0.29102,0.26855,0.49609
		c-0.02051,0.20459-0.16504,0.37549-0.36328,0.43066l-12.03711,3.33154L117.30713,39.381
		C117.22412,39.4352,117.12939,39.46254,117.03369,39.46254z M87.16357,22.06508l29.84766,16.31494l11.0791-7.23926
		c0.04297-0.02832,0.09082-0.0498,0.13965-0.06348l10.87793-3.01123L87.06689,1.32192L87.16357,22.06508z"/>
	<polygon id="Fill-122" fill-rule="evenodd" clip-rule="evenodd" fill="#E8824A" points="128.36366,31.55884 117.0341,38.96318 
		116.22453,130.8084 131.16019,108.32492 	"/>
	<path fill="#33475C" d="M116.22412,131.30824c-0.04883,0-0.09863-0.00684-0.14648-0.02246
		c-0.21191-0.06445-0.35547-0.26074-0.35352-0.48242l0.80957-91.84473c0.00195-0.16748,0.08691-0.32275,0.22656-0.41406
		l11.33008-7.4043c0.15039-0.09961,0.34277-0.1084,0.50293-0.02539c0.16016,0.08252,0.26367,0.24561,0.27051,0.42578
		l2.79688,76.76562c0.00391,0.10449-0.02539,0.20801-0.08398,0.29492l-14.93652,22.48339
		C116.54639,131.22719,116.38818,131.30824,116.22412,131.30824z M117.53174,39.235l-0.79297,89.89453l13.91602-20.94726
		l-2.75879-75.7207L117.53174,39.235z"/>
	<path id="Fill-126" fill-rule="evenodd" clip-rule="evenodd" fill="#FF8F52" d="M103.08001,96.17675
		c-1.92522,1.27913-4.43826,1.19566-6.87827-0.2287l-0.38435-0.24261c-1.36435-0.84174-2.63565-2.0687-3.70261-3.5713
		c-1.24174-1.71043-2.19653-3.70522-2.77043-5.78522c-0.64957-2.00087-0.83305-4.04869-0.52435-5.84956l0.10174-0.54
		c0.30522-1.74522,0.98-3.23304,1.96174-4.32348c1.05827-1.20782,2.42783-1.9313,3.97305-2.09826
		c1.50261-0.21391,3.15044,0.20782,4.72696,1.21043l0.14957,0.09565c1.44608,0.8913,2.79739,2.18174,3.93999,3.76
		c1.16783,1.65565,2.06522,3.56783,2.60609,5.55566c0.53304,1.98782,0.71913,3.98521,0.54174,5.82869
		c-0.04435,0.38261-0.0913,0.71304-0.15913,1.07391C106.16957,93.51501,104.88609,95.34805,103.08001,96.17675 M114.22697,85.09849
		c-0.91566-3.86956-2.55044-7.63565-4.74522-10.92609c-1.63739-2.50087-3.5687-4.66956-5.67565-6.37652l1.75826-9.37044
		c2.42609,0.32261,4.34435-1.34261,4.83305-4.19652c0.75652-3.8913-1.32-8.76609-4.63652-10.88869
		c-3.31739-2.12261-6.62-0.68957-7.37653,3.20174c-0.00608,0.03304-0.01304,0.06609-0.01826,0.09913
		c-0.56956,2.80609,0.38609,6.28174,2.40956,8.76348l-1.75912,9.37565c-1.94522-0.90782-3.90609-1.4-5.79565-1.45217
		c-2.88435-5.27913-12.38087-22.61652-17.91391-32.73566c0.29304-0.57217,0.51217-1.21826,0.64956-1.92
		c0.82087-4.35826-1.52-9.79044-5.22869-12.13218c-3.70782-2.34174-7.37913-0.70782-8.2,3.6513
		c-0.82087,4.35739,1.51826,9.78696,5.22521,12.13044c1.21565,0.76087,2.48174,1.11391,3.65826,1.02087l1.16608,2.13478
		l16.20869,28.47739c-1.23217,0.46348-2.36522,1.16-3.3687,2.07391c-2.08869,1.82522-3.54347,4.57478-4.18869,7.92l-0.13478,0.71652
		c-0.45044,2.31652-0.5487,4.83826-0.29044,7.4487c0.23043,2.21217,0.74,4.46,1.50956,6.65304l-7.82695,3.49479
		c-2.46609-2.85131-5.74522-3.10957-7.32348-0.57565c-1.57826,2.53304-0.85826,6.89913,1.6087,9.75043
		c2.46609,2.8513,5.74522,3.10957,7.32347,0.57652c0.63131-1.01392,0.9174-2.37653,0.81566-3.87566l8.06956-3.60435
		c0.78609,1.31913,1.65304,2.56609,2.58695,3.72261c1.96,2.47739,4.19305,4.52435,6.55914,6.01304l0.45913,0.28957
		c5.69652,3.60609,11.64348,3.50696,15.73391-0.2626c2.10696-1.87566,3.5713-4.68087,4.22-8.08348l0.03304-0.17565
		C115.22697,92.68893,115.10783,88.9124,114.22697,85.09849"/>
	<path opacity="0.5" fill="#E8824A" enable-background="new    " d="M83.23145,80.16811c-2.61182,0-4.95654-0.95703-6.86279-2.81982
		c-10.42529-10.18701-5.44824-46.64161-4.84619-50.76465c0.19922-1.36719,1.47266-2.31104,2.83447-2.11279
		c1.36621,0.19922,2.31201,1.46826,2.11279,2.83447c-0.01367,0.09619-1.40771,9.76807-1.5957,20.44434
		c-0.23682,13.40674,1.53564,22.64844,4.98975,26.02295c1.22314,1.19482,2.63672,1.60742,4.45801,1.29932
		c10.86621-1.84424,13.0459-24.54395,12.96875-33.13477c-0.0127-1.38086,1.09668-2.50977,2.47754-2.52246
		c0.00781,0,0.01562,0,0.02246,0c1.37109,0,2.4873,1.10449,2.5,2.47754c0.0127,1.43506,0.11621,35.18213-17.13281,38.10938
		C84.50244,80.11294,83.85889,80.16811,83.23145,80.16811z"/>
	<path fill="#FFFFFF" d="M76.87891,73.91567c-2.63818,0-5.28662-0.82178-7.91699-2.4624
		c-6.6167-4.12646-8.05322-13.24903-4.26904-27.11377c2.64209-9.68115,6.89111-18.16357,7.0708-18.52002
		c0.62109-1.2334,2.12354-1.72852,3.35693-1.10742c1.23291,0.62061,1.729,2.12402,1.1084,3.35693
		c-0.04199,0.0835-4.22607,8.44482-6.72998,17.6499c-2.14014,7.86963-3.51172,17.98633,2.10889,21.49219
		c2.86328,1.78613,5.56641,2.1543,8.26367,1.12842c8.8291-3.36279,15.64062-20.72266,17.51953-27.12793
		c0.38965-1.32422,1.77637-2.08398,3.10254-1.6958c1.32422,0.38818,2.08398,1.77637,1.69629,3.10107
		c-0.30371,1.03711-7.58203,25.45557-20.53418,30.39356C80.07178,73.61391,78.47705,73.91567,76.87891,73.91567z"/>
	<polygon id="Fill-132" fill-rule="evenodd" clip-rule="evenodd" fill="#FF8F52" points="81.09296,11.90953 70.35992,13.44953 
		61.53905,8.62953 81.09296,5.82257 	"/>
	<path fill="#33475C" d="M70.35986,13.94936c-0.0835,0-0.16602-0.021-0.23975-0.06104l-8.8208-4.81982
		c-0.18896-0.10352-0.29053-0.31592-0.25244-0.52783c0.03857-0.21191,0.20801-0.37549,0.4209-0.40625l19.55371-2.80713
		c0.14697-0.02246,0.28906,0.02246,0.39893,0.11719c0.10938,0.09521,0.17236,0.23291,0.17236,0.37793v6.08691
		c0,0.24854-0.18262,0.45947-0.4292,0.49512l-10.73291,1.54004C70.40723,13.9479,70.3833,13.94936,70.35986,13.94936z
		 M63.09717,8.91079l7.35645,4.02002l10.13916-1.45508V6.39956L63.09717,8.91079z M81.09277,11.90932h0.00977H81.09277z"/>
	<polygon id="Fill-136" fill-rule="evenodd" clip-rule="evenodd" fill="#FF8F52" points="86.56253,6.58771 132.77646,30.33727 
		140.47472,28.20683 86.56253,0.50075 	"/>
	<path fill="#33475C" d="M132.77686,30.83706c-0.0791,0-0.15723-0.01855-0.22852-0.05518L86.33447,7.03237
		c-0.16699-0.08594-0.27148-0.25732-0.27148-0.44482V0.50063c0-0.17432,0.09082-0.33594,0.23926-0.42676
		c0.14941-0.09082,0.33301-0.09717,0.48926-0.01807l53.91211,27.70605c0.18359,0.09424,0.29004,0.29102,0.26855,0.49609
		c-0.02051,0.20459-0.16504,0.37549-0.36328,0.43066l-7.69824,2.13037C132.8667,30.8312,132.82178,30.83706,132.77686,30.83706z
		 M87.06299,6.28237l45.76855,23.52051l6.27637-1.73682L87.06299,1.31997V6.28237z"/>
	<polygon id="Fill-140" fill-rule="evenodd" clip-rule="evenodd" fill="#FF8F52" points="81.09296,11.90953 86.56253,6.58779 
		86.56253,0.50084 81.09296,5.82257 	"/>
	<path fill="#33475C" d="M81.09277,12.40932c-0.06543,0-0.13184-0.0127-0.19434-0.03955
		c-0.18555-0.07812-0.30566-0.25928-0.30566-0.46045V5.82241c0-0.13477,0.05469-0.26416,0.15137-0.3584l5.47021-5.32178
		c0.14258-0.14062,0.3584-0.18164,0.54297-0.10205c0.18555,0.07812,0.30566,0.25928,0.30566,0.46045v6.0874
		c0,0.13477-0.05469,0.26416-0.15137,0.3584l-5.47021,5.32129C81.34619,12.36049,81.22021,12.40932,81.09277,12.40932z
		 M81.59277,6.03334v4.6919l4.47021-4.34815V1.68471L81.59277,6.03334z"/>
</g>
<g class="card">
	
		<polygon id="Fill-144" opacity="0.25" fill-rule="evenodd" clip-rule="evenodd" fill="#7B97B7" enable-background="new    " points="
		57.35149,133.31665 73.97323,123.72014 40.72975,104.5271 24.10801,114.12362 	"/>
	<polygon id="Fill-146" fill-rule="evenodd" clip-rule="evenodd" fill="#FFAB7D" points="32.4181,81.43658 65.66158,100.62962 
		73.97288,123.72005 40.7294,104.52701 	"/>
	<path fill="#33475C" d="M73.97266,124.22036c-0.08594,0-0.17236-0.02246-0.25-0.06738l-33.24316-19.19336
		c-0.10254-0.05859-0.18066-0.15234-0.22021-0.26367L31.94775,81.6061c-0.07129-0.19775-0.01172-0.41846,0.14941-0.55322
		s0.39014-0.1543,0.5708-0.04932l33.24365,19.19287c0.10254,0.05908,0.18066,0.15283,0.22021,0.26367l8.31104,23.09131
		c0.07129,0.19727,0.01172,0.41797-0.14941,0.55273C74.20117,124.1813,74.0874,124.22036,73.97266,124.22036z M41.13818,104.1852
		l31.90137,18.41895l-7.78662-21.6333L33.35107,82.55288L41.13818,104.1852z"/>
	<polygon id="Fill-150" fill-rule="evenodd" clip-rule="evenodd" fill="#F5F8FA" points="32.4181,81.43658 24.10766,114.12354 
		57.35114,133.31657 65.66158,100.62962 	"/>
	<path fill="#33475C" d="M57.35107,133.81703c-0.08643,0-0.17285-0.02246-0.25-0.06738L23.85742,114.5563
		c-0.19385-0.11133-0.28955-0.33887-0.23438-0.55566l8.31055-32.68701c0.03857-0.15186,0.146-0.27686,0.29004-0.33789
		c0.14453-0.05957,0.30811-0.05029,0.44434,0.02783l33.24365,19.19287c0.19385,0.11182,0.28955,0.33936,0.23438,0.55615
		l-8.31055,32.68749c-0.03857,0.15234-0.146,0.27637-0.29004,0.33789C57.48291,133.80434,57.41699,133.81703,57.35107,133.81703z
		 M24.68506,113.87954l32.34424,18.67382l8.05469-31.68017L32.73975,82.19985L24.68506,113.87954z"/>
	<path id="Fill-154" fill-rule="evenodd" clip-rule="evenodd" fill="#FF8F52" d="M54.84122,121.68284
		c-0.78522,0.42435-1.74957,0.30434-2.63826-0.32957l-0.13913-0.10696c-0.49565-0.37131-0.94173-0.88783-1.29913-1.50348
		c-0.4174-0.70174-0.71478-1.50261-0.86261-2.32261c-0.18-0.79218-0.17826-1.58782,0.00348-2.26956l0.05826-0.20348
		c0.17826-0.66087,0.49043-1.20956,0.90609-1.59478c0.44956-0.42696,1.00174-0.65739,1.60174-0.66782
		c0.58608-0.02956,1.20522,0.19043,1.77652,0.63217l0.05392,0.04174c0.52522,0.39304,1,0.93739,1.38435,1.58435
		c0.39043,0.67826,0.66869,1.44521,0.80695,2.22956c0.13565,0.78261,0.13739,1.5574,0.00435,2.26087
		c-0.03043,0.14522-0.06087,0.2713-0.09913,0.40782C56.12384,120.76718,55.56557,121.42719,54.84122,121.68284 M59.51862,117.8124
		c-0.21651-1.52087-0.71304-3.02782-1.4426-4.37043c-0.54174-1.01913-1.20869-1.92175-1.96-2.65131l1.00609-3.54435
		c0.92174,0.20956,1.71825-0.36435,2.00608-1.44434c0.42783-1.47044-0.2-3.41827-1.40173-4.35218
		c-1.20174-0.93304-2.52261-0.49739-2.94957,0.97392c-0.00435,0.01131-0.00783,0.02435-0.0113,0.03739
		c-0.3174,1.05913-0.0713,2.42957,0.62,3.45565l-1.00609,3.54435c-0.71565-0.41739-1.45304-0.67478-2.17826-0.76174
		c-0.92435-2.13217-3.96956-9.13565-5.74348-13.22173c0.13304-0.21044,0.24-0.45044,0.31739-0.71565
		c0.4687-1.64783-0.24087-3.82087-1.58521-4.85131c-1.34522-1.0313-2.81479-0.53043-3.28348,1.11652
		c-0.4687,1.64783,0.24087,3.81913,1.58434,4.85043c0.44174,0.33566,0.91566,0.51566,1.37218,0.52087l0.37391,0.86261
		l5.23653,11.52435c-0.49044,0.13478-0.95131,0.36348-1.36957,0.67913c-0.86696,0.62869-1.52348,1.63565-1.88956,2.9
		l-0.07652,0.2713c-0.25478,0.87566-0.38087,1.84174-0.37304,2.85565c0.0113,0.85826,0.12869,1.74174,0.34695,2.61217
		l-3.13304,1.06956c-0.8487-1.18348-2.10175-1.39739-2.79739-0.47913c-0.69566,0.92-0.57217,2.62434,0.27652,3.80782
		c0.84869,1.18435,2.10087,1.39826,2.79739,0.47913c0.27826-0.36782,0.43652-0.88174,0.44956-1.46174l3.23131-1.10348
		c0.25652,0.53391,0.54608,1.04435,0.86435,1.52261c0.66695,1.02174,1.45478,1.88783,2.31217,2.54348l0.16695,0.12695
		c2.06435,1.58696,4.35652,1.75826,6.06174,0.4513c0.87653-0.64783,1.53826-1.67565,1.90696-2.96087l0.01913-0.06783
		C59.63688,120.76718,59.72384,119.30979,59.51862,117.8124"/>
	<g id="Group-159" transform="translate(31.304348, 101.739130)">
		<path id="Fill-156" fill-rule="evenodd" clip-rule="evenodd" fill="#FFFFFF" d="M10.22975,5.3564L0.69323-0.14882"/>
		<path fill="#FF8F52" d="M10.22886,6.35623c-0.16943,0-0.34131-0.04297-0.49902-0.13379L0.19321,0.71756
			C-0.28482,0.44119-0.44888-0.17014-0.173-0.64865s0.88574-0.64258,1.36621-0.36621l9.53662,5.50488
			c0.47803,0.27637,0.64209,0.8877,0.36621,1.36621C10.9105,6.17654,10.57456,6.35623,10.22886,6.35623z"/>
	</g>
	<g id="Group-163" transform="translate(30.434783, 104.347826)">
		<path id="Fill-160" fill-rule="evenodd" clip-rule="evenodd" fill="#FFFFFF" d="M11.14897,6.03318L0.4681-0.1329"/>
		<path fill="#FFAB7D" d="M11.14871,6.53367c-0.08496,0-0.1709-0.02148-0.24951-0.06738L0.21805,0.29929
			c-0.23926-0.1377-0.32129-0.44336-0.18311-0.68262c0.1377-0.23926,0.44385-0.32324,0.68311-0.18262L11.3992,5.60105
			c0.23926,0.1377,0.32129,0.44336,0.18311,0.68262C11.48953,6.44382,11.32156,6.53367,11.14871,6.53367z"/>
	</g>
	<g id="Group-167" transform="translate(29.565217, 106.086957)">
		<path id="Fill-164" fill-rule="evenodd" clip-rule="evenodd" fill="#FFFFFF" d="M8.69784,4.31449L0.94827-0.15943"/>
		<path fill="#FFAB7D" d="M8.69748,4.81406c-0.08496,0-0.1709-0.02148-0.24951-0.06738L0.69846,0.27305
			C0.4592,0.13535,0.37717-0.17031,0.51535-0.40957c0.1377-0.24023,0.44336-0.32324,0.68311-0.18262l7.74951,4.47363
			c0.23926,0.1377,0.32129,0.44336,0.18311,0.68262C9.0383,4.72422,8.87033,4.81406,8.69748,4.81406z"/>
	</g>
</g>
<g class="sprocket">
	<path fill="#33475C" d="M94.35693,151.54066c-1.35938,0-2.66504-0.60352-3.33887-1.65039
		c-0.25586-0.39746-0.40039-0.83398-0.43164-1.29785c-0.00879-0.05371-0.01367-0.10938-0.01367-0.16602v-3.46289
		c0-0.28027,0.11816-0.54785,0.32422-0.7373c0.20801-0.18945,0.4873-0.28516,0.76367-0.25879l0.37598,0.0332l-0.01172-0.35547
		c-0.66797-0.09277-1.31934-0.24414-1.94727-0.45215c-1.08105-0.36621-2.05762-0.87012-2.90918-1.50098l-0.23242-0.16992
		c-1.28711-0.9502-2.18555-2.16699-2.60352-3.52148c-0.06152-0.18945-0.11426-0.38574-0.15625-0.59082l-2.77246,0.3418
		c-2.92236,0.36035-6.49756,0.80078-9.16553,1.13477c-0.22656,0.42383-0.54785,0.80859-0.94922,1.13574
		c-1.73291,1.39844-4.50977,1.4541-6.32422,0.12988c-0.91895-0.67285-1.47021-1.63379-1.52441-2.64941
		c-0.00488-0.04004-0.00732-0.08008-0.00732-0.12109v-3.53223c0-0.28223,0.11914-0.55176,0.32812-0.74121
		c0.20898-0.18848,0.48877-0.27832,0.76953-0.25391l2.49658,0.24512c0.29346,0.02832,0.55078,0.18359,0.71533,0.41309
		c0.62158-0.10742,1.22266-0.12402,1.8877,0.15234c0.01904-0.0293,0.03711-0.05664,0.05322-0.08203
		c0.42822-0.65918,0.7373-1.13477,1.35986-1.15723c0.0376,0.00098,0.07617,0,0.11475,0.00293
		c2.54834-0.32227,6.1377-0.82715,9.03418-1.23438c0.66113-0.09277,1.29492-0.18262,1.88477-0.26465
		c-0.9082-0.05957-1.78564-0.36133-2.47754-0.88379c-0.87158-0.64355-1.37744-1.54199-1.4165-2.48827
		c-0.00195-0.02441-0.00293-0.04785-0.00293-0.07129v-3.51758c0-0.30957,0.14307-0.60156,0.3877-0.79004
		c0.24463-0.18945,0.56348-0.25293,0.8623-0.17871l3.7998,0.98047c0.06348,0.0166,0.12402,0.03906,0.18164,0.06641
		c0.68457,0.13574,1.31543,0.40723,1.83887,0.79395c0.20605,0.14453,0.58594,0.3125,0.9541,0.47461
		c0.84277,0.37109,1.71484,0.75391,2.00195,1.55371c0.0791,0.21777,0.10547,0.44238,0.0791,0.66699l0.61816,1.35058
		c0.04199-0.04492,0.08301-0.08984,0.12305-0.13477c0.72754-0.79882,1.55176-1.70507,2.54492-1.92089
		c1.36914-0.31641,2.66113-0.03711,3.91016,0.23047c0.32227,0.06836,0.64551,0.1377,0.97168,0.19629
		c1.36816,0.25391,2.50586,1.24023,3.50879,2.11132c0.31055,0.26953,0.60547,0.52637,0.88379,0.7334
		c0.59766,0.43848,1.10254,0.91797,1.52344,1.44238c0.28906-0.16797,0.64551-0.18359,0.94922-0.03027
		c0.33984,0.16895,0.55469,0.5166,0.55371,0.89746l-0.00781,3.14746c0.00195,0.09863,0.00195,0.21777-0.00098,0.33887v0.1748
		c0,0.09375-0.0127,0.18652-0.03809,0.27441c-0.19336,1.83105-1.17285,3.54102-2.77246,4.83008l-0.16895,0.13672
		c-0.97461,0.79102-2.12598,1.40625-3.4209,1.82812c-0.32129,0.10742-0.65234,0.20312-0.98828,0.28516l0.01953,0.59961
		l0.5332-0.05762c0.2793-0.03223,0.56445,0.05957,0.77637,0.25c0.21094,0.18945,0.33203,0.45996,0.33203,0.74414v3.46289
		c0,0.06934-0.00684,0.13574-0.02051,0.20117c-0.09668,1.15234-0.91504,2.14746-2.17285,2.625
		C95.4292,151.44789,94.88916,151.54066,94.35693,151.54066z M92.57275,148.30141c0.00488,0.03711,0.00684,0.07422,0.00781,0.1123
		c0.00195,0.14355,0.04102,0.27246,0.11914,0.39453c0.42383,0.65723,1.60547,0.92578,2.5332,0.5752
		c0.53516-0.2041,0.88574-0.58594,0.89258-0.97461c0.00098-0.04395,0.00488-0.08691,0.01074-0.12891v-2.20117l-0.49609,0.05371
		c-0.27637,0.03125-0.55371-0.05664-0.76367-0.23828c-0.20996-0.18262-0.33496-0.44434-0.34375-0.72168l-0.08496-2.52148
		c-0.01758-0.5,0.33887-0.93652,0.83301-1.01953c0.52832-0.08887,1.05176-0.21973,1.55469-0.38867
		c1.06934-0.34863,2.00488-0.8457,2.78906-1.48145l0.1709-0.13867c1.21973-0.9834,1.94824-2.2627,2.05176-3.60449
		c0.00293-0.04004,0.00879-0.08008,0.0166-0.11914v-0.02832c0.00293-0.11719,0.00293-0.20703,0.00098-0.2959l0.00391-1.64062
		c-0.25488-0.07031-0.47266-0.23828-0.60449-0.46973c-0.375-0.65625-0.89648-1.2334-1.5498-1.71387
		c-0.37695-0.27832-0.71094-0.56641-1.0625-0.87109c-0.81055-0.7041-1.73047-1.50098-2.55664-1.6543
		c-0.34082-0.06152-0.6875-0.13477-1.03223-0.20898c-1.08398-0.23047-2.1084-0.4502-3.05566-0.23438
		c-0.37891,0.08301-1.05371,0.8252-1.50098,1.31543c-0.47461,0.52246-0.92383,1.01562-1.40625,1.31641
		c-0.24414,0.15137-0.54199,0.19336-0.81738,0.10742c-0.27441-0.08301-0.50098-0.2793-0.62012-0.54102l-1.34375-2.9375
		c-0.07227-0.15722-0.10156-0.32909-0.08789-0.49706c-0.21875-0.12988-0.58789-0.29297-0.83203-0.40039
		c-0.45801-0.20117-0.93164-0.41016-1.32031-0.68359c-0.3457-0.25586-0.76709-0.41895-1.23486-0.4834
		c-0.13379-0.01758-0.25781-0.0625-0.36865-0.12695l-2.29492-0.5918v2.21387c0.01025,0.33496,0.21729,0.67577,0.5835,0.94726
		c0.70215,0.52734,1.73242,0.66504,2.60449,0.36328c0.30908-0.10449,0.65186-0.05371,0.91357,0.13867l3.1084,2.26953
		c0.23242,0.16992,0.38086,0.43164,0.40625,0.71875s-0.07324,0.57031-0.27246,0.7793
		c-0.28906,0.30273-0.64355,0.4541-1.0498,0.44043c-0.51562-0.02734-0.875-0.34277-1.12305-0.62988
		c-1.0127,0.12988-2.81201,0.38281-4.88037,0.67383c-2.854,0.40137-6.37891,0.89648-8.93164,1.22168
		c-0.05566,0.08398-0.11572,0.17969-0.17822,0.27637c-0.43213,0.66406-0.74414,1.14453-1.30908,1.24609
		c-0.27441,0.04883-0.59961-0.02637-0.8208-0.19141c-0.5166-0.37891-0.72705-0.34668-1.75586-0.11914l-0.20752,0.0459
		c-0.25879,0.05469-0.53125,0.00684-0.75439-0.13672c-0.18457-0.11914-0.32373-0.29395-0.39795-0.49805l-0.68213-0.06738v2.34863
		c0.00146,0.01953,0.00293,0.04004,0.00342,0.06055c0.00928,0.43066,0.26123,0.84863,0.70898,1.17676
		c1.08057,0.78809,2.86035,0.75879,3.88379-0.06934c0.27783-0.22559,0.46973-0.49805,0.55176-0.78516
		c0.09082-0.31641,0.33105-0.56836,0.64307-0.67285c0.10156-0.03418,0.20605-0.05078,0.31006-0.05176
		c2.53955-0.31836,6.06201-0.75293,9.04199-1.12012l4.34912-0.53711c0.27637-0.03125,0.55664,0.04883,0.76953,0.22949
		s0.34082,0.44238,0.35254,0.72168c0.01758,0.43164,0.08008,0.80469,0.19043,1.13965
		c0.29785,0.96289,0.94531,1.82715,1.88086,2.51758l0.2334,0.1709c0.69141,0.51074,1.4834,0.91895,2.36133,1.21582
		c0.73926,0.24512,1.52832,0.39453,2.34082,0.44336c0.51562,0.03027,0.92285,0.44824,0.93945,0.96484l0.0791,2.35742
		c0.00977,0.28613-0.10352,0.5625-0.31152,0.75879c-0.20801,0.19727-0.48926,0.30078-0.77539,0.27051l-0.41309-0.03613V148.30141z
		 M93.98877,139.68129c-0.3291,0-0.6582-0.02246-0.9834-0.06641c-0.94434-0.08105-1.86523-0.40527-2.61328-0.93359l-0.19238-0.13965
		c-0.04688-0.03418-0.08301-0.04199-0.23926-0.06641c-0.29883-0.0459-0.99707-0.1543-1.35742-0.9873
		c-0.36816-0.82227-0.44922-1.72266-0.23145-2.59375c0.18164-0.8418,0.68848-1.62891,1.45801-2.24707
		c0.68066-0.5625,1.47363-0.96387,2.33594-1.19922c0.89453-0.23242,1.84766-0.28418,2.76953-0.15527
		c0.9209,0.13379,1.79785,0.4375,2.54004,0.88086c0.1709,0.10547,0.30273,0.19238,0.44434,0.29688
		c1.04102,0.78027,1.64844,1.83789,1.71973,2.98926c0.22656,1.37402-0.44043,1.92871-1.08691,2.46582l-0.3252,0.27539
		c-0.00879,0.00684-0.0166,0.01367-0.02539,0.02051l-0.1416,0.11523c-0.6084,0.50098-1.36816,0.88086-2.19434,1.0957
		C95.26611,139.59731,94.62939,139.68129,93.98877,139.68129z M90.3667,136.51527c0.24902,0.04199,0.61133,0.125,1.00195,0.40332
		l0.18848,0.13672c0.44043,0.31152,1.03809,0.51758,1.66992,0.57227c0.74707,0.10156,1.46094,0.05371,2.12207-0.12695
		c0.55957-0.14648,1.05469-0.3916,1.44531-0.71191l0.13281-0.1084c0.125-0.1084,0.24121-0.20508,0.34668-0.29297
		c0.16602-0.1377,0.37207-0.30859,0.41797-0.37891c-0.00391,0,0.00195-0.0752-0.03125-0.25684
		c-0.00879-0.04492-0.01367-0.09082-0.01562-0.13574c-0.02539-0.56836-0.35156-1.11523-0.91895-1.54004
		c-0.09082-0.06738-0.18164-0.12695-0.28906-0.19336c-0.50488-0.30078-1.12598-0.51465-1.78516-0.61035
		c-0.65625-0.0918-1.34082-0.05371-1.97266,0.1084c-0.5791,0.1582-1.1123,0.42578-1.53125,0.77148
		c-0.47461,0.38184-0.73828,0.77734-0.8291,1.19629C90.21729,135.75648,90.23486,136.14125,90.3667,136.51527z M97.5708,137.44594
		h0.00977H97.5708z"/>
	<path fill="#33475C" d="M94.35791,148.06215c-1.35938,0-2.66602-0.60352-3.33984-1.65039
		c-0.46094-0.71582-0.57129-1.54199-0.3125-2.32715c0.22656-0.68652,0.71973-1.27734,1.39355-1.68945l-0.07422-2.22754
		c-0.66895-0.09277-1.32031-0.24512-1.94824-0.45312c-1.07715-0.36426-2.05371-0.86816-2.9082-1.50098l-0.23047-0.16699
		c-1.28906-0.95215-2.18652-2.16895-2.60547-3.52441c-0.06445-0.19922-0.11914-0.4043-0.16211-0.61719l-2.65186,0.32715
		c-2.93652,0.36133-6.56201,0.80859-9.26318,1.14648c-0.22803,0.43457-0.55469,0.83008-0.96533,1.16504
		c-1.73438,1.40039-4.51074,1.4541-6.3252,0.12988c-0.94775-0.69238-1.50537-1.69141-1.53076-2.74121
		c-0.02539-1.03711,0.47217-2.04492,1.36475-2.76562c1.72949-1.40137,4.50781-1.45508,6.32227-0.12695
		c0.1416,0.10449,0.27344,0.21582,0.39502,0.33105l13.24121-1.66895c0.16895-0.34473,0.36816-0.67773,0.59668-0.99805
		l-1.86084-1.35839c-1.36377,0.29785-2.84229,0.01562-3.89307-0.77637c-0.89502-0.66309-1.40332-1.58887-1.4209-2.55957
		c-0.01709-0.96289,0.44971-1.89551,1.28174-2.55957c1.59326-1.27051,4.13818-1.31152,5.78955-0.08691
		c1.08105,0.76172,1.58594,1.92676,1.38574,3.07129l2.00098,1.46094c0.86426-0.45898,1.81152-0.80176,2.8252-1.02246
		c1.6123-0.36914,3.3418-0.40625,4.99219-0.11133c1.65039,0.30762,3.16602,0.95117,4.39062,1.86133
		c1.35352,0.99219,2.26855,2.21874,2.70312,3.58398c0.8877,2.66504-0.06738,5.53613-2.49512,7.49219l-0.16895,0.13672
		c-0.97461,0.79199-2.12598,1.40723-3.4209,1.82812c-0.32227,0.10742-0.65234,0.20312-0.98926,0.28516l0.08203,2.41406
		c0.46973,0.27637,0.85547,0.63965,1.13281,1.07031c0.46094,0.71582,0.57129,1.54102,0.31348,2.32617
		c-0.29492,0.89551-1.0459,1.63086-2.05957,2.01562C95.4292,147.97035,94.88916,148.06215,94.35791,148.06215z M85.04834,131.78871
		c0.2373,0,0.46777,0.08398,0.65039,0.24023c0.21289,0.18262,0.33984,0.44629,0.34863,0.72754
		c0.01465,0.43066,0.07715,0.80957,0.19141,1.15918c0.29688,0.96191,0.94531,1.82617,1.87988,2.5166l0.23145,0.16797
		c0.69531,0.51465,1.4873,0.92188,2.3623,1.21777c0.73926,0.24512,1.5293,0.39551,2.3418,0.44434
		c0.51562,0.03027,0.92285,0.44824,0.93945,0.96484l0.12598,3.74512c0.01465,0.42773-0.24414,0.81641-0.64453,0.96875
		c-0.44141,0.16699-0.7666,0.4541-0.87012,0.76953c-0.06836,0.20703-0.03613,0.41504,0.09473,0.61914
		c0.42383,0.6582,1.60547,0.92773,2.5332,0.57617c0.44043-0.16797,0.76562-0.45605,0.86914-0.77246
		c0.06836-0.20605,0.03613-0.41406-0.09375-0.61719c-0.15625-0.24219-0.43457-0.44824-0.78418-0.58008
		c-0.37793-0.14258-0.63379-0.49805-0.64648-0.90234l-0.12988-3.86133c-0.01758-0.5,0.33887-0.93652,0.83301-1.01953
		c0.52832-0.08887,1.05176-0.21973,1.55469-0.38867c1.06934-0.34766,2.00488-0.84473,2.78809-1.48145l0.17188-0.13867
		c1.79102-1.44434,2.4834-3.42871,1.85352-5.31055c-0.00195-0.00488-0.00391-0.01074-0.00488-0.01562
		c-0.30469-0.96191-0.97168-1.8418-1.92871-2.5459c-1.04492-0.77441-2.27441-1.29198-3.62109-1.54296
		c-1.38086-0.24805-2.83301-0.21582-4.19727,0.09473c-1.03613,0.22656-1.97461,0.59961-2.79688,1.11133
		c-0.3457,0.21484-0.78711,0.19921-1.11816-0.04199l-3.10645-2.26758c-0.39355-0.28809-0.52246-0.81738-0.30469-1.25488
		c0.24023-0.48145,0.05664-1-0.49121-1.38672c-0.94678-0.7002-2.48145-0.68164-3.37109,0.0293
		c-0.34766,0.27734-0.53564,0.61816-0.52979,0.95996c0.00635,0.34961,0.21436,0.69434,0.58545,0.96875
		c0.70166,0.5293,1.7334,0.66504,2.604,0.36426c0.30908-0.10449,0.65186-0.05469,0.91357,0.13867l3.1084,2.26855
		c0.23242,0.16992,0.38086,0.43163,0.40625,0.71874s-0.07324,0.57031-0.27246,0.7793
		c-0.5166,0.54102-0.90234,1.13672-1.14551,1.77051c-0.13281,0.34375-0.44336,0.58691-0.80859,0.63281l-14.31934,1.80566
		c-0.35791,0.04102-0.70654-0.10352-0.92236-0.38867c-0.10303-0.13672-0.23584-0.26562-0.39453-0.38379
		c-1.07373-0.78418-2.85303-0.75391-3.87744,0.07324c-0.41211,0.33301-0.63281,0.74512-0.62305,1.16211
		c0.01074,0.42969,0.26318,0.84766,0.71143,1.1748c1.08203,0.78906,2.86084,0.75781,3.88525-0.06738
		c0.28223-0.23047,0.47607-0.50781,0.55664-0.79883c0.10791-0.38867,0.43896-0.67383,0.83887-0.72461
		c2.74609-0.3457,6.69434-0.83203,9.84863-1.2207l3.65137-0.4502C84.96631,131.79164,85.00732,131.78871,85.04834,131.78871z
		 M93.98779,137.07191c-0.32715,0-0.65625-0.02148-0.98145-0.06543c-0.94629-0.08105-1.86719-0.40625-2.61523-0.93555
		l-0.18848-0.13574c-0.72266-0.51465-1.27734-1.18164-1.59961-1.92578c-0.36816-0.82227-0.4502-1.72266-0.23145-2.59375
		c0.18164-0.83984,0.6875-1.62793,1.45703-2.24707c0.68066-0.56152,1.47266-0.96289,2.33691-1.19823
		c0.89746-0.23145,1.84961-0.28613,2.76953-0.15625c0.9209,0.13379,1.79785,0.43749,2.54004,0.88085
		c0.1709,0.10547,0.30273,0.19238,0.44434,0.29688c1.04102,0.78027,1.64844,1.83789,1.71973,2.99023
		c0.21777,1.32617-0.29492,2.6377-1.41211,3.61035c-0.00781,0.00684-0.0166,0.01367-0.02539,0.02051l-0.1416,0.11523
		c-0.60645,0.49902-1.36621,0.87891-2.19238,1.0957C95.26807,136.98793,94.63037,137.07191,93.98779,137.07191z M93.94189,129.74477
		c-0.42773,0-0.85547,0.05273-1.2627,0.1582c-0.58008,0.1582-1.11328,0.42578-1.53125,0.77051
		c-0.47461,0.38281-0.73828,0.77832-0.8291,1.19727c-0.11523,0.46289-0.07324,0.91309,0.11523,1.33398
		c0.18164,0.41992,0.50293,0.79785,0.93457,1.10547l0.18555,0.13379c0.44336,0.31348,1.04102,0.52051,1.67285,0.5752
		c0.74805,0.09961,1.46387,0.05469,2.12207-0.12695c0.56055-0.14746,1.05664-0.39258,1.44531-0.71191l0.13184-0.10742
		c0.58203-0.51172,0.84961-1.16699,0.73438-1.79883c-0.00879-0.04492-0.01367-0.09082-0.01562-0.13574
		c-0.02539-0.56934-0.35156-1.11621-0.91895-1.54102c-0.09082-0.06738-0.18164-0.12695-0.28906-0.19336
		c-0.50488-0.30078-1.12598-0.51465-1.78516-0.61035C94.41748,129.76137,94.18018,129.74477,93.94189,129.74477z M97.5708,134.83754
		h0.00977H97.5708z"/>
	<path id="Fill-172" fill-rule="evenodd" clip-rule="evenodd" fill="#FFC7AA" d="M97.57053,137.44623l-0.14174,0.11478
		c-0.49913,0.4113-1.12174,0.72261-1.81479,0.90347c-0.79217,0.21826-1.64522,0.27217-2.47304,0.15913
		c-0.81131-0.07043-1.57217-0.33565-2.17305-0.75999l-0.17913-0.13043c-0.5826-0.41393-1.01826-0.06349-1.26782-0.64174
		c-0.28087-0.62871-0.34261-1.30261-0.18-1.95479c0.14-0.64348,0.52869-1.23914,1.11478-1.71043l0.05565-0.04523
		c0.52782-0.43651,1.18522-0.76869,1.91653-0.96782c0.76173-0.19739,1.57652-0.24174,2.36782-0.13043
		c0.7887,0.11391,1.53217,0.37044,2.16696,0.74869c0.13217,0.08261,0.24348,0.15565,0.3626,0.24348
		c0.80957,0.60608,1.28088,1.42957,1.31827,2.29739C98.82444,136.56274,98.43314,136.69666,97.57053,137.44623z M102.13227,132.9697
		c-0.4313-0.75739-1.04174-1.4487-1.82522-2.02521l-0.05826-0.04088c-1.10609-0.8226-2.47739-2.38434-3.97131-2.66174
		c-1.52-0.27129-2.99739-0.77563-4.49304-0.43478c-1.13305,0.24696-2.29652,2.18783-3.21304,2.75652l-1.34348-2.93739
		c0.46522-0.92696-1.61913-1.30956-2.57217-1.98174c-0.47913-0.35478-1.06522-0.57304-1.67565-0.65652v-0.03913l-3.8-0.98087
		v3.50521v0.01305v0.00435h0.00087c0.01826,0.63216,0.34783,1.25999,0.98783,1.73391c0.0113,0.0087,0.02261,0.01564,0.03304,0.02347
		c0.92435,0.69653,2.30869,0.88783,3.49043,0.48262l3.10783,2.26869c-0.60609,0.63565-1.10087-1.26956-1.39217-0.51392
		c-2.30869,0.28957-9.8687,1.39999-14.29391,1.95653c-0.16261-0.21478-1.05565,1.65477-1.28696,1.4826
		c-0.96-0.70261-1.58434-0.50696-2.77217-0.24783l-0.12521-0.58261l-2.49653-0.24521v3.53304l0.00348,0.00087
		c0.01566,0.71652,0.38869,1.42783,1.11826,1.96175c1.44435,1.05478,3.72783,1.01218,5.10261-0.0974
		c0.44174-0.36,0.74609-0.80521,0.88522-1.2887l0.00783,0.00609c4.00696-0.50261,10.57478-1.30782,13.49739-1.6713l0.00174,0.00174
		c0.01826,0.47478,0.08696,0.94868,0.23913,1.41043c0.35305,1.14696,1.12957,2.19217,2.23566,3.00957l0.23826,0.17303
		c0.76609,0.56696,1.65565,1.02609,2.62957,1.35565c0.82608,0.27393,1.70522,0.44087,2.60261,0.49478l0.07912,2.35739
		l-1.50087-0.13217v3.46262h0.00696c0.00435,0.31042,0.08696,0.62521,0.27913,0.92261
		c0.68087,1.05913,2.34957,1.49304,3.72783,0.96956c0.96957-0.36868,1.52435-1.11478,1.53826-1.89217h0.01044v-3.46262
		l-1.60435,0.17479l-0.08435-2.52087c0.58609-0.09825,1.15739-0.24173,1.70695-0.42696
		c1.1713-0.38087,2.22696-0.94435,3.10087-1.65305l0.17044-0.13826c1.4687-1.18347,2.29565-2.71565,2.41913-4.30435l0.01913-0.02173
		v-0.20261c0.00348-0.10522,0.00348-0.20956,0.00087-0.31392l0.00783-3.14783L102.13227,132.9697z"/>
	<path id="Fill-174" fill-rule="evenodd" clip-rule="evenodd" fill="#FFFFFF" d="M97.57053,134.83752l-0.14174,0.11478
		c-0.49913,0.41132-1.12174,0.72261-1.81479,0.90349c-0.79217,0.21826-1.64522,0.27217-2.47304,0.15913
		c-0.81131-0.07043-1.57217-0.33566-2.17305-0.76001l-0.17913-0.13043c-0.5826-0.41391-1.01826-0.93304-1.26782-1.51131
		c-0.28087-0.62869-0.34261-1.30261-0.18-1.95477c0.14-0.64348,0.52869-1.23914,1.11478-1.71043l0.05565-0.04523
		c0.52782-0.43652,1.18522-0.76869,1.91653-0.96782c0.76173-0.1974,1.57652-0.24174,2.36782-0.13045
		c0.7887,0.11392,1.53217,0.37044,2.16696,0.7487c0.13217,0.08261,0.24348,0.15565,0.3626,0.24348
		c0.80957,0.60608,1.28088,1.42957,1.31827,2.29738C98.82444,133.08449,98.43314,134.08797,97.57053,134.83752 M102.59749,130.51579
		c-0.3687-1.16348-1.16348-2.22087-2.29044-3.04956l-0.05826-0.04087c-1.10609-0.82261-2.47739-1.40174-3.97131-1.67913
		c-1.52-0.27305-3.10609-0.2374-4.60174,0.10348c-1.13305,0.24696-2.18783,0.66695-3.10435,1.23565l-3.10609-2.26782
		c0.46435-0.92783,0.14348-1.97913-0.80957-2.65131c-1.28609-0.95217-3.33304-0.92261-4.5713,0.06609
		c-1.24,0.98869-1.20174,2.56174,0.08435,3.51392c0.0113,0.00869,0.02261,0.01565,0.03304,0.02348
		c0.92435,0.69653,2.30869,0.88783,3.49043,0.4826l3.10783,2.26868c-0.60609,0.63567-1.06435,1.3461-1.35565,2.10175
		c-2.30782,0.28957-9.89391,1.2487-14.31913,1.80522c-0.16261-0.21478-0.36348-0.40958-0.59478-0.58174
		c-1.44435-1.05652-3.72957-1.01218-5.10348,0.0974c-1.37392,1.11043-1.31652,2.86694,0.12782,3.92261
		c1.44435,1.05478,3.72783,1.01216,5.10261-0.0974c0.44783-0.36522,0.75652-0.81827,0.89304-1.30957
		c4.00696-0.50348,10.57478-1.30782,13.49739-1.67043c0.01653,0.48434,0.08609,0.96782,0.24087,1.43826
		c0.35305,1.14696,1.12957,2.19217,2.23566,3.00955l0.23826,0.17305c0.76609,0.56696,1.65565,1.02609,2.62957,1.35565
		c0.82608,0.27391,1.70522,0.44087,2.60261,0.49478l0.12608,3.74522c-1.37913,0.5226-1.94347,1.80608-1.26174,2.86522
		c0.68087,1.05913,2.34957,1.49304,3.72783,0.96956c1.3774-0.52348,1.94261-1.80609,1.26174-2.86522
		c-0.27305-0.42348-0.72-0.76608-1.27218-0.97391l-0.12956-3.86174c0.58609-0.09827,1.15739-0.24174,1.70695-0.42696
		c1.1713-0.38087,2.22696-0.94435,3.10087-1.65305l0.17044-0.13826C102.53836,135.21753,103.36009,132.79579,102.59749,130.51579"/>
</g>
</svg>
